<svg width="152" height="152" viewBox="0 0 152 152" fill="none" xmlns="http://www.w3.org/2000/svg">
<g clip-path="url(#clip0_16362_2161)">
<path fill-rule="evenodd" clip-rule="evenodd" d="M111.251 15.3014C127.106 23.4353 136.822 39.7418 140.696 56.8485C144.407 73.2333 140.482 90.1672 131.437 104.424C122.692 118.208 108.895 127.886 92.9091 132.174C76.8254 136.488 59.72 135.296 45.0103 127.606C29.7979 119.652 17.5681 106.618 12.931 90.3584C8.25007 73.9444 11.1975 56.1344 20.5243 41.7445C29.5006 27.8956 45.0544 20.7016 61.1132 16.0211C77.7664 11.1674 95.8611 7.40595 111.251 15.3014Z" fill="#212B36" fill-opacity="0.05"/>
<path d="M55.4452 6.8574C57.0075 -0.206422 67.441 2.10826 67.441 2.10826C66.6933 1.76754 65.3985 0.965367 66.2008 0.482365C66.8548 0.0886276 67.3802 0.661698 67.6627 1.18291C67.3481 0.415915 67.1284 -0.699342 68.0597 -0.819244C69.1394 -0.958246 68.9344 1.05712 68.6969 2.08219C71.894 2.77076 73.1707 5.97821 80.4337 9.63592C89.5124 14.2081 96.2177 13.2574 100.026 12.7898C124.784 9.74944 112.916 46.4594 93.2433 38.5268C80.627 33.4397 63.5567 17.8439 57.53 12.1057C56.0822 10.7273 55.0112 8.82011 55.4452 6.8574Z" fill="#434950"/>
<path d="M3.87857 144.393C1.84789 144.393 0.796872 144.833 0.31835 145.452C-0.993638 147.148 2.03773 148.696 4.16773 148.696L7.68373 148.696C8.38126 148.696 9.07243 148.564 9.72156 148.306L17.5005 145.221C19.5265 144.417 20.6555 142.225 20.1469 140.082C19.7998 138.619 20.0464 137.078 20.8316 135.802L25.6087 128.043L17.715 132.308C17.3846 136.994 7.88149 144.393 3.87857 144.393Z" fill="url(#paint0_linear_16362_2161)"/>
<path fill-rule="evenodd" clip-rule="evenodd" d="M111.449 91.6956L152 108.272L151.638 109.162L111.409 92.7174L49.4615 112.576L30.6955 123.313L10.706 152.826L9.91309 152.286L30.0275 122.588L49.0738 111.691L111.449 91.6956Z" fill="#0D1116"/>
<path d="M40.7501 21.3182C39.8687 22.1989 37.1877 27.4416 36.3477 30.2812L43.229 30.5652L44.6062 23.2997C49.5641 21.0981 52.8694 16.9149 52.8694 15.5939C52.8694 14.5371 51.6758 13.9794 51.2168 14.2729C51.2168 13.3923 50.4823 13.4656 49.8396 13.6124C49.6192 12.5556 48.4624 12.8785 48.1869 13.1721C47.9115 12.2914 46.2589 12.0713 45.4325 12.9519C46.5343 14.0528 45.5187 16.5119 44.0554 18.0157C42.1273 19.9972 41.8518 20.2174 40.7501 21.3182Z" fill="#FFC5C1"/>
<path d="M63.3442 30.0771C79.4415 22.631 87.7776 27.786 95.8263 34.9457L69.3931 35.6485C61.8235 39.467 46.6144 49.7807 41.7852 51.8427C35.7487 54.4202 30.862 54.7066 30.5746 50.1244C30.3446 46.4586 34.5156 30.7799 36.0486 27.0568H43.8099L39.4856 43.5374C42.5517 41.1509 50.4088 36.0606 63.3442 30.0771Z" fill="#A6ADB5"/>
<path d="M58.5175 5.78261C56.7885 7.24337 55.106 9.93461 55.979 17.3244C56.1735 17.9172 55.8478 18.9065 55.4366 19.6738C55.2144 20.0885 55.4256 20.6999 55.8813 20.7925L56.27 20.8714C56.3669 22.1523 57.1504 25.1186 59.7617 25.6009C62.9625 26.1921 64.0907 25.1337 66.4542 24.4185L70.8189 29.7391L80.1303 27.0788C78.6754 26.7832 75.1836 22.9406 74.0197 21.167C73.0886 19.7482 72.5648 17.5214 72.8558 16.7332C76.3475 12.8905 75.1836 9.63902 72.5648 9.34343C70.4697 9.10696 69.655 11.4126 70.237 13.4817C62.3223 13.0087 59.0025 8.54145 58.5175 5.78261Z" fill="#FFEBF0"/>
<path d="M67.739 21.4783C67.5869 22.3785 66.5206 23.7573 65.2607 24.3696L67.739 27.2609L67.739 21.4783Z" fill="url(#paint1_linear_16362_2161)"/>
<path fill-rule="evenodd" clip-rule="evenodd" d="M58.6895 5.83387C58.74 5.89507 58.7327 5.98682 58.6733 6.0388C57.7042 6.88678 56.8921 7.87635 56.4215 9.54163C55.9494 11.2118 55.8179 13.572 56.2352 17.165C56.3362 17.493 56.2959 17.9069 56.1908 18.3172C56.0828 18.7386 55.9005 19.1784 55.6984 19.5611C55.6138 19.7211 55.6092 19.9266 55.6754 20.1038C55.7414 20.2804 55.8692 20.4087 56.0304 20.4419L56.5094 20.5406L56.5176 20.6504C56.6098 21.8845 57.1507 24.1623 59.4734 25.0245C60.9738 25.5815 62.9732 25.3067 64.7119 24.5257C66.4539 23.7432 67.8846 22.4757 68.2888 21.1003C68.3114 21.0234 68.3902 20.98 68.4648 21.0033C68.5394 21.0265 68.5815 21.1077 68.559 21.1845C68.1195 22.6798 66.5977 23.9958 64.8247 24.7922C63.0485 25.5901 60.9705 25.8894 59.3777 25.2981C56.9633 24.4018 56.3641 22.0773 56.2454 20.7827L55.975 20.727C55.6973 20.6698 55.5039 20.4542 55.412 20.2082C55.3203 19.9629 55.321 19.6672 55.4505 19.4221C55.6443 19.0552 55.8169 18.6371 55.9179 18.243C56.0201 17.8441 56.0434 17.4914 55.9628 17.2424L55.9583 17.2284L55.9566 17.2138C55.5353 13.5957 55.6625 11.1868 56.1505 9.46034C56.6404 7.72674 57.4913 6.6916 58.4906 5.81719C58.55 5.76521 58.6391 5.77268 58.6895 5.83387Z" fill="#EB99A2"/>
<path fill-rule="evenodd" clip-rule="evenodd" d="M97.8019 35.9171C97.8757 35.9833 97.9497 36.0497 98.0236 36.116C101.263 39.0215 104.047 44.0681 106.211 49.177C108.376 54.2907 109.929 59.4879 110.696 62.7142L110.415 62.7826C109.652 59.5703 108.105 54.3889 105.946 49.2922C103.786 44.1907 101.022 39.1951 97.8327 36.3347C97.7657 36.2746 97.6987 36.2145 97.6318 36.1545C93.6834 32.6123 89.9497 29.2627 85.2554 27.679C80.4919 26.0721 74.719 26.2788 66.7072 30.0155C53.8593 36.0079 44.5323 42.3063 41.4806 44.7013L41.3042 44.4704C44.3748 42.0606 53.7209 35.751 66.5867 29.7503C74.646 25.9914 80.4959 25.7657 85.3464 27.402C90.0972 29.0047 93.8698 32.3893 97.8019 35.9171Z" fill="#5F6872"/>
<path d="M43.2821 81.4884L82.7476 71.8696C94.3993 75.736 104.623 93.5968 100.789 95.6337C96.9552 97.6706 64.6123 92.1445 45.8192 92.5217C43.564 102.48 27.5899 126.471 22.9856 133.826H17.3477C18.4752 129.488 25.9173 116.286 29.7511 100.443C33.5849 84.6004 40.1813 81.0169 43.2821 81.4884Z" fill="url(#paint2_linear_16362_2161)"/>
<path d="M40.478 12.3913L57.8259 13.4927V17.8985L40.478 19V12.3913Z" fill="#5F6872"/>
<path d="M41.3045 15.6956C41.3045 17.5206 40.9347 19 40.4784 19C40.0222 19 39.6523 17.5206 39.6523 15.6956C39.6523 13.8707 40.0222 12.3913 40.4784 12.3913C40.9347 12.3913 41.3045 13.8707 41.3045 15.6956Z" fill="#D5DCE9"/>
<path d="M58.6521 15.6957C58.6521 17.0644 58.0973 18.1739 57.413 18.1739C56.7286 18.1739 56.1738 17.0644 56.1738 15.6957C56.1738 14.3269 56.7286 13.2174 57.413 13.2174C58.0973 13.2174 58.6521 14.3269 58.6521 15.6957Z" fill="#434950"/>
<path d="M31.8827 117.432C29.5246 118.047 28.497 118.875 28.1955 119.726C27.4106 121.941 31.0604 122.657 33.3578 122.058L37.3712 121.012C38.148 120.809 38.8789 120.464 39.5259 119.995L47.2513 114.392C49.2702 112.927 49.8826 110.213 48.6871 108.027C47.872 106.537 47.6933 104.789 48.1909 103.174L51.2173 93.3478L43.7016 100.274C44.712 105.469 36.3295 116.272 31.8827 117.432Z" fill="url(#paint3_linear_16362_2161)"/>
<path d="M41.1029 44.5854L40.246 48.5483L46.53 40.9056L43.9593 42.604L41.1029 44.5854Z" fill="url(#paint4_linear_16362_2161)"/>
<path d="M42.3199 21.4147C41.4532 22.6009 38.2572 30.2122 37.1738 33.8696H43.4033L45.0003 28.3329C46.0408 24.7251 48.8559 22.1627 51.2073 19.4078C53.0479 17.2512 53.6956 14.8279 53.6956 13.7046C53.6956 12.2812 52.7927 11.5299 52.3413 11.9253C52.3413 10.7391 50.4454 10.4426 50.4454 11.6288C50.4454 10.4426 48.2786 10.4426 48.2786 11.6288C48.0078 10.4426 46.3827 10.7391 46.3827 12.2218C46.6535 14.2976 46.1965 14.3479 44.7576 16.3734C42.8616 19.0423 43.4033 19.932 42.3199 21.4147Z" fill="#FFEBF0"/>
<path fill-rule="evenodd" clip-rule="evenodd" d="M52.9423 12.9407C52.6744 12.6556 52.4116 12.6309 52.2658 12.7521L52.094 12.5249C52.4073 12.2644 52.8333 12.4115 53.1393 12.7372C53.4549 13.073 53.6957 13.6361 53.6957 14.3564C53.6957 15.4829 53.0199 17.8571 51.1269 19.9623C50.667 20.4737 50.1933 20.9747 49.7195 21.4757C48.9512 22.2883 48.1829 23.1007 47.474 23.9576C46.3327 25.3368 45.3656 26.8088 44.8444 28.5239L43.22 33.8696L42.9565 33.7815L44.5809 28.4359C45.1182 26.6676 46.112 25.161 47.2651 23.7675C47.9783 22.9056 48.7602 22.0784 49.5346 21.2592C50.0069 20.7596 50.4764 20.263 50.9257 19.7633C52.7773 17.7042 53.4191 15.3989 53.4191 14.3564C53.4191 13.7024 53.2007 13.2156 52.9423 12.9407Z" fill="#EB99A2"/>
<path d="M49.0051 104.087H41.3042C42.35 96.0915 44.2134 76.5307 43.3007 62.2505C42.1599 44.4003 53.8538 50.2574 58.1321 51.3731C61.5548 52.2656 78.1926 63.6451 86.0836 69.2233L88.0802 62.2505H109.757C111.944 67.1779 114.777 79.4871 108.616 89.3048C100.915 101.577 87.2245 94.604 77.8123 87.9102C73.3259 85.0095 60.9738 72.9421 55.3586 67.2709C53.5404 78.3497 50.5409 95.4516 49.0051 104.087Z" fill="#D5DCE9"/>
<path d="M77.4183 50.9037C70.526 47.7166 69.2816 41.4391 69.3773 40.4734C61.815 44.3364 45.4841 52.5841 40.6595 54.6702C34.6288 57.2777 30.034 54.6702 31.757 47.7166C32.6503 44.1118 34.5331 35.5479 36.0647 31.7814H43.8185L40.6595 44.5296C43.7228 42.1152 53.0656 35.7797 65.9312 29.7533C81.8719 22.2865 89.0658 28.7682 97.022 35.9368L97.2336 36.1274C103.666 41.922 108.338 56.312 109.869 62.7826H88.0439C88.0439 56.988 85.5527 54.6651 77.4183 50.9037Z" fill="url(#paint5_linear_16362_2161)"/>
<path d="M61.9564 73.5217L56.1738 67.0966L56.9448 61.9565L61.9564 73.5217Z" fill="#ADB4BD"/>
<path d="M69.3911 40.7258C71.8389 50.7956 85.0654 53.1403 81.0181 47.0857C77.6524 42.0508 73.0628 39.6659 69.3911 40.7258Z" fill="url(#paint6_linear_16362_2161)"/>
<path d="M86.7393 69.276L88.598 62.7826H94.174V73.5217L86.7393 69.276Z" fill="url(#paint7_linear_16362_2161)"/>
</g>
<defs>
<linearGradient id="paint0_linear_16362_2161" x1="19.318" y1="124.601" x2="17.3039" y2="143.531" gradientUnits="userSpaceOnUse">
<stop offset="0.194766"/>
<stop offset="1" stop-color="#5F6872"/>
</linearGradient>
<linearGradient id="paint1_linear_16362_2161" x1="64.4346" y1="24.3695" x2="67.741" y2="24.632" gradientUnits="userSpaceOnUse">
<stop stop-color="#FFC5C1"/>
<stop offset="1" stop-color="#FFC5C1" stop-opacity="0"/>
</linearGradient>
<linearGradient id="paint2_linear_16362_2161" x1="82.7476" y1="82.3371" x2="-0.390015" y2="155.598" gradientUnits="userSpaceOnUse">
<stop stop-color="#A6ADB5"/>
<stop offset="1" stop-color="#D5DCE9"/>
</linearGradient>
<linearGradient id="paint3_linear_16362_2161" x1="42.3721" y1="97.5907" x2="42.0941" y2="114.845" gradientUnits="userSpaceOnUse">
<stop offset="0.194766"/>
<stop offset="1" stop-color="#5F6872"/>
</linearGradient>
<linearGradient id="paint4_linear_16362_2161" x1="39.9604" y1="43.7362" x2="43.086" y2="45.7433" gradientUnits="userSpaceOnUse">
<stop stop-color="#5F6872"/>
<stop offset="1" stop-color="#A6ADB5" stop-opacity="0"/>
</linearGradient>
<linearGradient id="paint5_linear_16362_2161" x1="92.9463" y1="71.2208" x2="91.5858" y2="37.4889" gradientUnits="userSpaceOnUse">
<stop stop-color="#A5ADBC"/>
<stop offset="1" stop-color="#CED3DC"/>
</linearGradient>
<linearGradient id="paint6_linear_16362_2161" x1="69.6971" y1="40.9908" x2="77.313" y2="52.1295" gradientUnits="userSpaceOnUse">
<stop stop-color="#5F6872"/>
<stop offset="1" stop-color="#D5DCE9" stop-opacity="0"/>
</linearGradient>
<linearGradient id="paint7_linear_16362_2161" x1="76.4844" y1="61.7836" x2="94.1198" y2="66.2438" gradientUnits="userSpaceOnUse">
<stop stop-color="#989CA0"/>
<stop offset="1" stop-color="#6F6F6F" stop-opacity="0"/>
</linearGradient>
<clipPath id="clip0_16362_2161">
<rect width="152" height="152" fill="white"/>
</clipPath>
</defs>
</svg>
